<?xml version="1.0" encoding="UTF-8"?>
<svg version="1.1" xmlns="http://www.w3.org/2000/svg" width="214" height="54">
<path d="M0 0 C0 9.57 0 19.14 0 29 C-3.3 29 -6.6 29 -10 29 C-10 25.37 -10 21.74 -10 18 C-12.64 18 -15.28 18 -18 18 C-18 21.63 -18 25.26 -18 29 C-28.56 29 -39.12 29 -50 29 C-50 24.71 -50 20.42 -50 16 C-41.03190469 12.15857064 -31.97922935 8.70593208 -22.78808594 5.44091797 C-20.47220778 4.61508946 -18.16205698 3.77434891 -15.8515625 2.93359375 C-14.37012053 2.40532685 -12.88836105 1.87794931 -11.40625 1.3515625 C-10.37812195 0.97362045 -10.37812195 0.97362045 -9.32922363 0.58804321 C-5.51618811 -0.74414939 -4.05602036 -1.01400509 0 0 Z " fill="#B11E43" transform="translate(50,21)"/>
<path d="M0 0 C16.5 0 33 0 50 0 C50 3.96 50 7.92 50 12 C43.72771433 15.3035526 37.35467676 17.85460715 30.6875 20.25 C29.69943359 20.61351563 28.71136719 20.97703125 27.69335938 21.3515625 C26.74654297 21.69445312 25.79972656 22.03734375 24.82421875 22.390625 C23.96916748 22.70032227 23.11411621 23.01001953 22.2331543 23.32910156 C20 24 20 24 17 24 C17.33 21.03 17.66 18.06 18 15 C15.36 15 12.72 15 10 15 C10 18.96 10 22.92 10 27 C3.375 30 3.375 30 0 30 C0 20.1 0 10.2 0 0 Z " fill="#B11E43" transform="translate(0,0)"/>
<path d="M0 0 C0.99 0.33 1.98 0.66 3 1 C4.33783393 0.68521554 5.67203709 0.35412344 7 0 C8 1 8 1 8.11352539 3.59204102 C8.10828857 4.71795654 8.10305176 5.84387207 8.09765625 7.00390625 C8.09443359 8.21884766 8.09121094 9.43378906 8.08789062 10.68554688 C8.07951172 11.96494141 8.07113281 13.24433594 8.0625 14.5625 C8.05798828 15.84576172 8.05347656 17.12902344 8.04882812 18.45117188 C8.03699545 21.63416022 8.02051068 24.81705762 8 28 C6.35 28 4.7 28 3 28 C3 25.69 3 23.38 3 21 C2.154375 21.391875 1.30875 21.78375 0.4375 22.1875 C-4.0818946 23.25572054 -6.01336649 22.25658501 -10 20 C-12.25155742 18.111597 -12.85931131 16.82832443 -13.34765625 13.953125 C-13.62655575 9.69096851 -13.37515857 6.86853742 -10.625 3.5 C-6.87865663 -0.06794607 -5.09465426 -0.20794507 0 0 Z M-6.25 6.5625 C-8.39858007 9.00982848 -8.39858007 9.00982848 -7.75 12.75 C-7.5025 13.8225 -7.255 14.895 -7 16 C-2.40145723 17.12319413 -2.40145723 17.12319413 2 16 C3.60559331 12.78881337 2.86197805 10.38634233 2 7 C-1.51056778 4.65962148 -2.73207044 4.11949336 -6.25 6.5625 Z " fill="#B11E43" transform="translate(119,8)"/>
<path d="M0 0 C1.98 0 3.96 0 6 0 C6 3.3 6 6.6 6 10 C10.95 8.515 10.95 8.515 16 7 C16 4.69 16 2.38 16 0 C17.65 0 19.3 0 21 0 C21 8.25 21 16.5 21 25 C19.35 25 17.7 25 16 25 C15.67 21.37 15.34 17.74 15 14 C12.03 15.32 9.06 16.64 6 18 C6 20.31 6 22.62 6 25 C4.02 25 2.04 25 0 25 C0 16.75 0 8.5 0 0 Z " fill="#B11E43" transform="translate(64,5)"/>
<path d="M0 0 C2.375 1 2.375 1 4 2 C4 1.34 4 0.68 4 0 C5.32 0.33 6.64 0.66 8 1 C8 7.93 8 14.86 8 22 C-4.15821501 23.65111562 -4.15821501 23.65111562 -10 20 C-12.96015387 16.65789079 -13.58185442 13.46356309 -13.4296875 9 C-12.65395507 5.38931815 -10.60947818 3.54734775 -8 1 C-5.2201184 -0.3899408 -3.0813674 -0.18488204 0 0 Z M-7 7 C-8.00674926 9.87319901 -8.00674926 9.87319901 -8 13 C-6.68864588 15.36290685 -6.68864588 15.36290685 -5 17 C-2.6568787 16.74438677 -0.32156597 16.40729228 2 16 C3.41441874 13.17116253 3.31900332 11.12623255 3 8 C1.2890789 6.02901574 1.2890789 6.02901574 -1 5 C-4.18490007 4.7226499 -4.18490007 4.7226499 -7 7 Z " fill="#B11E43" transform="translate(167,8)"/>
<path d="M0 0 C2.5625 2.125 2.5625 2.125 4 5 C4 7.31 4 9.62 4 12 C-0.62 12.33 -5.24 12.66 -10 13 C-10 13.66 -10 14.32 -10 15 C-5.98195309 15.84098656 -2.98196457 16.05404945 1 15 C1.625 16.875 1.625 16.875 2 19 C-0.85833286 21.85833286 -3.01515461 21.80075773 -7 22 C-10.52639082 20.77932625 -12.4496513 19.64207349 -14.875 16.8125 C-16.34591979 13.13520052 -16.82956497 9.86124785 -16 6 C-11.94564813 -0.96747876 -7.43173798 -1.90083529 0 0 Z M-8 4 C-9.485 5.98 -9.485 5.98 -11 8 C-7.7 8 -4.4 8 -1 8 C-1.33 7.01 -1.66 6.02 -2 5 C-4.97 4.505 -4.97 4.505 -8 4 Z " fill="#B11E43" transform="translate(210,9)"/>
<path d="M0 0 C1.32 0 2.64 0 4 0 C4.06058594 0.98742188 4.12117187 1.97484375 4.18359375 2.9921875 C4.26738281 4.27351562 4.35117188 5.55484375 4.4375 6.875 C4.51871094 8.15117187 4.59992188 9.42734375 4.68359375 10.7421875 C4.79206027 13.88300152 4.79206027 13.88300152 6 16 C8.31 16 10.62 16 13 16 C13 11.05 13 6.1 13 1 C14.65 0.67 16.3 0.34 18 0 C19 1 19 1 19.11352539 3.04125977 C19.10828857 3.91580811 19.10305176 4.79035645 19.09765625 5.69140625 C19.09443359 6.63564453 19.09121094 7.57988281 19.08789062 8.55273438 C19.07951172 9.54595703 19.07113281 10.53917969 19.0625 11.5625 C19.05798828 12.55958984 19.05347656 13.55667969 19.04882812 14.58398438 C19.03700007 17.05604849 19.02051849 19.52799518 19 22 C16.66666667 22 14.33333333 22 12 22 C10.6078125 22.3403125 10.6078125 22.3403125 9.1875 22.6875 C5.32215759 23.06645514 4.02236423 22.35072773 1 20 C-1.5139603 16.22905955 -1.26026442 13.23320555 -1.1875 8.875 C-1.18685547 8.13378906 -1.18621094 7.39257812 -1.18554688 6.62890625 C-1.14039459 1.14039459 -1.14039459 1.14039459 0 0 Z " fill="#B11E43" transform="translate(132,8)"/>
<path d="M0 0 C2.375 1 2.375 1 4 2 C4 2.99 4 3.98 4 5 C1.42786866 6.61949011 0.32330841 7.04408751 -2.75 6.625 C-3.4925 6.41875 -4.235 6.2125 -5 6 C-2.77970298 7.72689769 -0.82573376 9.07921193 1.75 10.25 C4 12 4 12 4.5 15.5 C4 19 4 19 2.875 20.875 C0.14572304 22.51256618 -1.80705929 22.87719459 -5 23 C-7.50011578 22.21181089 -9.64107884 21.17946058 -12 20 C-11.67 18.68 -11.34 17.36 -11 16 C-7.7 16.33 -4.4 16.66 -1 17 C-3.64054495 14.35945505 -5.83650446 12.86565122 -9 11 C-11 9 -11 9 -11.4375 6.625 C-11 4 -11 4 -8.875 1.6875 C-5.52357059 -0.27964335 -3.82358511 -0.48811725 0 0 Z " fill="#B11E43" transform="translate(100,8)"/>
<path d="M0 0 C1.258125 -0.04125 2.51625 -0.0825 3.8125 -0.125 C4.52019531 -0.14820313 5.22789062 -0.17140625 5.95703125 -0.1953125 C8 0 8 0 11 2 C11.66 1.34 12.32 0.68 13 0 C15.68839385 -0.26991906 18.29141936 -0.08737357 21 0 C21.05386629 2.12472576 21.09273071 4.24983652 21.125 6.375 C21.14820313 7.55835938 21.17140625 8.74171875 21.1953125 9.9609375 C21 13 21 13 19 15 C15.375 15.125 15.375 15.125 12 15 C12 14.01 12 13.02 12 12 C13.65 12 15.3 12 17 12 C16.195625 11.690625 15.39125 11.38125 14.5625 11.0625 C12 10 12 10 11 9 C10.67 9.66 10.34 10.32 10 11 C9.01 11 8.02 11 7 11 C7 8.36 7 5.72 7 3 C5.68 3 4.36 3 3 3 C3 5.64 3 8.28 3 11 C2.01 11 1.02 11 0 11 C0 7.37 0 3.74 0 0 Z M14 3 C13.67 4.32 13.34 5.64 13 7 C15.475 7.495 15.475 7.495 18 8 C18.33 7.01 18.66 6.02 19 5 C18.67 4.34 18.34 3.68 18 3 C16.68 3 15.36 3 14 3 Z " fill="#B11E43" transform="translate(193,39)"/>
<path d="M0 0 C0.99 0 1.98 0 3 0 C3.33 1.32 3.66 2.64 4 4 C5.65 4.33 7.3 4.66 9 5 C9.33 5.99 9.66 6.98 10 8 C10.33 7.34 10.66 6.68 11 6 C13 4 13 4 14.98046875 3.734375 C16.98888143 3.74859385 18.99584122 3.86857975 21 4 C21 7.63 21 11.26 21 15 C16.33333333 15 11.66666667 15 7 15 C6.67 12.69 6.34 10.38 6 8 C5.01 7.67 4.02 7.34 3 7 C3 9.64 3 12.28 3 15 C2.01 15 1.02 15 0 15 C0 10.05 0 5.1 0 0 Z M14 7 C13.67 8.32 13.34 9.64 13 11 C15.475 11.495 15.475 11.495 18 12 C17.67 10.35 17.34 8.7 17 7 C16.01 7 15.02 7 14 7 Z " fill="#B11E43" transform="translate(64,35)"/>
<path d="M0 0 C3.64588169 -0.02682987 7.29156846 -0.04675569 10.9375 -0.0625 C12.49887695 -0.07506836 12.49887695 -0.07506836 14.09179688 -0.08789062 C15.57583008 -0.09272461 15.57583008 -0.09272461 17.08984375 -0.09765625 C18.46450806 -0.10551147 18.46450806 -0.10551147 19.86694336 -0.11352539 C22 0 22 0 23 1 C23.07205511 2.68608966 23.08386068 4.37500659 23.0625 6.0625 C23.05347656 6.98160156 23.04445313 7.90070312 23.03515625 8.84765625 C23.02355469 9.55792969 23.01195313 10.26820312 23 11 C22.01 11 21.02 11 20 11 C20 8.36 20 5.72 20 3 C19.01 3 18.02 3 17 3 C17 5.64 17 8.28 17 11 C16.01 11 15.02 11 14 11 C14 8.36 14 5.72 14 3 C13.01 3 12.02 3 11 3 C11 5.64 11 8.28 11 11 C9.68 11 8.36 11 7 11 C7 8.36 7 5.72 7 3 C6.01 3.33 5.02 3.66 4 4 C3.67 6.31 3.34 8.62 3 11 C2.01 11 1.02 11 0 11 C0 7.37 0 3.74 0 0 Z " fill="#B11E43" transform="translate(86,39)"/>
<path d="M0 0 C2.97 0.495 2.97 0.495 6 1 C6.33 0.67 6.66 0.34 7 0 C9.69082872 0.17635452 12.32851446 0.61835921 15 1 C14.34 2.65 13.68 4.3 13 6 C10.69 6 8.38 6 6 6 C5.67 11.28 5.34 16.56 5 22 C3.35 22 1.7 22 0 22 C0 14.74 0 7.48 0 0 Z " fill="#B11E43" transform="translate(180,8)"/>
<path d="M0 0 C4.29 0 8.58 0 13 0 C13.66 1.65 14.32 3.3 15 5 C15.6496875 3.7625 15.6496875 3.7625 16.3125 2.5 C16.869375 1.675 17.42625 0.85 18 0 C18.99 0 19.98 0 21 0 C19.33333333 5 17.66666667 10 16 15 C14.68 14.67 13.36 14.34 12 14 C12.226875 13.46375 12.45375 12.9275 12.6875 12.375 C13.13958145 8.93918099 11.67178015 6.94233306 10 4 C9.67 6.31 9.34 8.62 9 11 C8.01 11 7.02 11 6 11 C6 8.36 6 5.72 6 3 C5.01 3 4.02 3 3 3 C3 5.64 3 8.28 3 11 C2.01 11 1.02 11 0 11 C0 7.37 0 3.74 0 0 Z " fill="#B11E43" transform="translate(122,39)"/>
<path d="M0 0 C1.27875 -0.061875 2.5575 -0.12375 3.875 -0.1875 C4.95394531 -0.23970703 4.95394531 -0.23970703 6.0546875 -0.29296875 C6.69664062 -0.19628906 7.33859375 -0.09960938 8 0 C10.67927341 4.01891012 10.15601248 6.24161923 10 11 C8.68 11 7.36 11 6 11 C6 8.36 6 5.72 6 3 C5.01 3 4.02 3 3 3 C3 5.64 3 8.28 3 11 C2.01 11 1.02 11 0 11 C0 7.37 0 3.74 0 0 Z " fill="#B11E43" transform="translate(153,39)"/>
<path d="M0 0 C1.875 1.0625 1.875 1.0625 3 3 C2.55555556 9.44444444 2.55555556 9.44444444 1 11 C-4.27565392 11.45875252 -4.27565392 11.45875252 -6.875 9.8125 C-8.40659584 7.34492892 -8.42822025 5.85480169 -8 3 C-5.85607122 -0.27231235 -3.76836426 -0.56525464 0 0 Z M-4 3 C-4.33 4.65 -4.66 6.3 -5 8 C-3.35 8 -1.7 8 0 8 C-0.33 6.35 -0.66 4.7 -1 3 C-1.99 3 -2.98 3 -4 3 Z " fill="#B11E43" transform="translate(118,39)"/>
<path d="M0 0 C0.99 0 1.98 0 3 0 C4.6875 2 4.6875 2 6 4 C6.66 2.68 7.32 1.36 8 0 C8.99 0 9.98 0 11 0 C9.7874262 3.72433382 8.49140021 7.37802806 7 11 C6.01 11 5.02 11 4 11 C3.32880451 9.5437455 2.66318193 8.08492133 2 6.625 C1.62875 5.81289063 1.2575 5.00078125 0.875 4.1640625 C0 2 0 2 0 0 Z " fill="#B11E43" transform="translate(177,39)"/>
<path d="M0 0 C0.99 0 1.98 0 3 0 C3 4.95 3 9.9 3 15 C2.01 15 1.02 15 0 15 C0 10.05 0 5.1 0 0 Z " fill="#B11E43" transform="translate(169,35)"/>
<path d="M0 0 C0.99 0 1.98 0 3 0 C3 3.63 3 7.26 3 11 C1.68 11 0.36 11 -1 11 C-1.0270043 9.54176788 -1.04639787 8.08339325 -1.0625 6.625 C-1.07410156 5.81289063 -1.08570313 5.00078125 -1.09765625 4.1640625 C-1 2 -1 2 0 0 Z " fill="#B11E43" transform="translate(189,39)"/>
<path d="M0 0 C0.99 0 1.98 0 3 0 C3 3.63 3 7.26 3 11 C2.01 11 1.02 11 0 11 C0 7.37 0 3.74 0 0 Z " fill="#B11E43" transform="translate(173,39)"/>
<path d="M0 0 C0.99 0 1.98 0 3 0 C3 3.63 3 7.26 3 11 C2.01 11 1.02 11 0 11 C0 7.37 0 3.74 0 0 Z " fill="#B11E43" transform="translate(148,39)"/>
<path d="M0 0 C0.99 0.33 1.98 0.66 3 1 C3 1.99 3 2.98 3 4 C1.68 4 0.36 4 -1 4 C-0.67 2.68 -0.34 1.36 0 0 Z " fill="#B11E43" transform="translate(189,34)"/>
<path d="M0 0 C0.99 0.33 1.98 0.66 3 1 C2.67 1.99 2.34 2.98 2 4 C1.01 4 0.02 4 -1 4 C-0.67 2.68 -0.34 1.36 0 0 Z " fill="#B11E43" transform="translate(174,34)"/>
<path d="M0 0 C0.99 0.33 1.98 0.66 3 1 C2.67 1.99 2.34 2.98 2 4 C1.01 4 0.02 4 -1 4 C-0.67 2.68 -0.34 1.36 0 0 Z " fill="#B11E43" transform="translate(149,34)"/>
</svg>
